<mxfile host="app.diagrams.net" modified="2023-10-13T15:01:05.251Z" agent="Mozilla/5.0 (Windows NT 10.0; Win64; x64) AppleWebKit/537.36 (KHTML, like Gecko) Chrome/117.0.0.0 Safari/537.36" etag="Oqx5BUsLN2f0fCL6qTj9" version="22.0.4" type="github">
  <diagram name="PÃ¡gina-1" id="RnSbfc3wUmpdfaLmwqcw">
    <mxGraphModel dx="794" dy="478" grid="1" gridSize="10" guides="1" tooltips="1" connect="1" arrows="1" fold="1" page="1" pageScale="1" pageWidth="827" pageHeight="1169" math="0" shadow="0">
      <root>
        <mxCell id="0" />
        <mxCell id="1" parent="0" />
        <mxCell id="1fK6M1Fmoo9OVRviugGx-2" value="" style="image;aspect=fixed;perimeter=ellipsePerimeter;html=1;align=center;shadow=0;dashed=0;spacingTop=3;image=img/lib/active_directory/folder.svg;" vertex="1" parent="1">
          <mxGeometry x="378.9" y="80" width="51.1" height="70" as="geometry" />
        </mxCell>
        <mxCell id="1fK6M1Fmoo9OVRviugGx-3" value="" style="dashed=0;outlineConnect=0;html=1;align=center;labelPosition=center;verticalLabelPosition=bottom;verticalAlign=top;shape=mxgraph.weblogos.github" vertex="1" parent="1">
          <mxGeometry x="440" y="130" width="30" height="30" as="geometry" />
        </mxCell>
        <mxCell id="1fK6M1Fmoo9OVRviugGx-4" value="siman-starter-parent" style="text;strokeColor=none;align=center;fillColor=none;html=1;verticalAlign=middle;whiteSpace=wrap;rounded=0;fontFamily=Lucida Console;" vertex="1" parent="1">
          <mxGeometry x="329.45" y="170" width="150" height="30" as="geometry" />
        </mxCell>
      </root>
    </mxGraphModel>
  </diagram>
</mxfile>
